<svg version="1" xmlns="http://www.w3.org/2000/svg" width="453.333" height="453.333" viewBox="0 0 340.000000 340.000000"><path d="M36.5 42.8c-.3.3-.5 3.3-.5 6.6l.1 6.1L39 50c1.6-3 2.9-5.8 3-6.1 0-.8-4.8-1.8-5.5-1.1zM43.7 51.4C36.6 66.2 36.2 65 47.8 65c8.2 0 10.1-.3 11.4-1.8 2-2.3 12.8-19.6 12.8-20.5 0-.4-5.3-.7-11.9-.7H48.3l-4.6 9.4zM78.5 44.4C72.3 54.5 67 63.5 67 64c0 .3 53.9.4 119.7.2l119.8-.3.1-10.3V43.2l-18-.6c-10-.3-61-.5-113.4-.4-95.4.1-95.4.1-96.7 2.2zM314.2 43c-4.4 1.8-5.4 8.7-1.6 12.4.8.9 3 1.6 4.8 1.6 6.8 0 9.5-8.1 4.2-12.7-2.9-2.5-3.9-2.7-7.4-1.3zm6.9 2c1.2.7 1.9 2.1 1.9 4.2 0 6.1-5.9 8.9-10 4.8-5.3-5.3 1.3-12.6 8.1-9z"/><path d="M314 50.2c.1 3.8.2 4.1 1.4 2.5 1.6-2.1 3.6-2.2 3.6-.1 0 .8.3 1.3.8 1.1.4-.3.7-2 .6-3.9-.1-3-.4-3.3-3.2-3.6-3.2-.3-3.2-.3-3.2 4zm4.8-2c-.6 1.8-2.8 2.1-2.8.4 0-.9.7-1.6 1.6-1.6.9 0 1.4.5 1.2 1.2zM36 149.5V227h27V72H36v77.5zM88 101c-7.9.9-10.8 2-13.8 5.3-3.5 3.7-4.1 8.3-4.2 27.8 0 23.8.1 24.1 16.4 32.5 6.4 3.3 12.5 6.8 13.4 7.8 1.4 1.4 1.8 4.1 2 15.7.5 17.4-.2 22.6-2.9 23.4-4.3 1.4-4.9-.7-4.9-17.1V181H70v16.8c0 15.4.2 17.1 2.3 21.2 1.6 3.3 3.4 5.1 6.7 6.7 4 2.1 5.9 2.3 18.5 2.3s14.5-.2 18.5-2.2c8.3-4.3 8.5-4.9 8.8-30 .5-30.5.1-31.3-18.1-39.3C94 150.9 94 150.9 94 132.9c0-8.1.3-15.4.6-16.3.9-2.3 5.1-2 6.4.4.6 1.2 1.1 6.9 1 13.3-.1 6.2-.1 11.8-.1 12.4.1 1 3.1 1.3 11.6 1.3H125v-13.6c0-7.4-.5-15.5-1.1-17.9-1.3-5-4.9-8.8-9.9-10.3-4.9-1.5-18.3-2.2-26-1.2zM207 100.9c-7.5 1.1-11.4 3.3-13.6 7.8-1.6 3.2-1.9 6.1-1.9 19.8v16h23l.5-13.9c.4-11.3.8-14.1 2.1-14.9.9-.6 2.4-.7 3.3-.4 1.4.6 1.6 2.8 1.6 17v16.3l-11.1 5.4c-11.7 5.8-17.4 10.3-18.6 14.8-.5 1.5-.8 12.8-.8 25.2 0 25.8.5 28 7.6 31.9 5.1 2.9 13.9 3.2 18.8.7 2.4-1.3 3.6-1.5 4.4-.7.7.7 5.6 1.1 12.4 1.1H246v-56.8c0-54-.1-56.9-2-61-2.8-6.1-8.1-8.3-21.4-8.8-5.6-.1-12.6.1-15.6.5zm14.9 109.6c-.7 2.4-3.4 3.1-5.4 1.5-1.2-1-1.5-4.7-1.4-19.9 0-10.2.4-19.4.8-20.5.4-1 1.8-2.4 3.2-3.1l2.4-1.3.5 20.6c.3 11.4.2 21.6-.1 22.7zM131 179v78h24v-16.1c0-15 .1-16.1 1.8-15.4 12.5 5.4 22.1 3.1 27-6.5 2.2-4.4 2.2-4.5 2.2-55.5 0-56.2.1-55.2-6.3-59.9-3.8-2.8-14.8-3.4-20.1-1.2-4.7 2-4.6 1.9-4.6.1 0-1.3-2-1.5-12-1.5h-12v78zm30.7-15.5c.2 25.9-.1 47.6-.6 48.4-.6.9-1.8 1.1-3.5.7l-2.6-.6v-47.4c0-26 .3-47.6.7-48 .4-.4 1.9-.6 3.3-.4l2.5.3.2 47zM252 164v63h24l.2-55.3.3-55.2 2.4-.3c1.3-.2 2.8.2 3.2 1 .5.7.9 25.7.9 55.5V227h24l-.2-57.9c-.3-57-.3-58-2.4-60.8-3.8-5.2-8.1-7.3-14.6-7.3-3.2 0-7.5.7-9.5 1.5-3.3 1.4-3.8 1.4-4.5 0-.7-1.2-3.1-1.5-12.3-1.5H252v63zM36 245.5c0 7.7.3 10.5 1.3 10.5.6.1 20.8.1 44.7 0h43.5l.3-10.5.3-10.5H36v10.5z"/><path d="M159.9 235.4c-.3.3-.3 5.1-.2 10.8l.3 10.3h146.5l.3-10.8.3-10.7h-73.4c-40.4 0-73.6.2-73.8.4zM42.5 263.9c-5.7 2.5-8.2 10.9-5 17 2.7 5.3 10.8 7.4 15.2 3.9.7-.5 1.4-.5 1.8.2 1.6 2.6 2.6.6 2.3-4.8l-.3-5.7-4.7-.3c-3.8-.2-4.8 0-4.8 1.2s1 1.6 3.5 1.6c4.1 0 4.6 1.9 1.3 5-2.3 2.2-5.8 2.6-8.7 1-4.3-2.2-5.1-11.1-1.4-15.2 2.4-2.7 7.9-2.4 10.7.7 2.8 3 3.6 3.1 3.6.7 0-4.2-8.4-7.5-13.5-5.3zM124.4 266.4c-2.8 2.8-3.4 4.2-3.4 7.5 0 5.7 2.4 10 6.7 11.7 9.1 3.9 17-4.4 14.3-14.8-1.3-4.6-5.7-7.8-10.8-7.8-2.5 0-4.3.9-6.8 3.4zM137 268c1.5 1.5 2 3.3 2 6.9 0 4.2-.4 5.3-2.6 7-4.3 3.4-8.6 2.6-10.9-2-3.4-6.6-.2-13.9 6.1-13.9 2.1 0 4.2.8 5.4 2zM150.3 264c-5.1 2.1-7.5 10.6-4.7 16.5 2.7 5.7 10.4 7.9 15.1 4.3.7-.5 1.4-.5 1.8.2 1.5 2.5 2.5.6 2.5-5v-6h-5.1c-5.7 0-6.6 2.3-1.1 2.8 3.7.4 4.1 2.3 1.2 5.2-3.3 3.3-9.3 2.3-11.5-2.1-2-3.8-1.9-6.8.5-10.7 1.6-2.6 2.6-3.2 5.5-3.2 2.5 0 4.3.7 5.9 2.5 2.8 3 3.6 3.1 3.6.6 0-4.5-7.9-7.4-13.7-5.1zM180 263.7c-2.2.8-4 3.4-4 5.8 0 2.9 2.8 5.3 7.1 6.1 4.8 1 6.9 2.2 6.9 4.2 0 4.7-6.6 5.7-10.6 1.7-3.1-3.1-4.8-3.2-3.8-.3 1.5 5 7.6 6.9 13.2 4.1 6.8-3.3 5.1-10.5-2.8-11.8-5.3-.9-7.4-2.6-6.6-5.3 1-3 7-3.1 8.8-.2 1.4 2.2 3.8 2.7 3.8.7-.1-4.1-6.8-6.9-12-5zM236.1 264.4c-3.4 1.9-5 5.4-5.1 10.8 0 3.8.6 5.4 2.8 7.9 2.3 2.6 3.6 3.2 7 3.2 2.3 0 4.9-.7 5.8-1.4 1.4-1.1 1.8-1.1 2.1-.2 1.1 3.2 2.3.7 2.3-4.8v-6l-4.7.3c-5.4.3-6.5 2.1-1.5 2.6 3.9.4 4.4 3.2 1 5.6-3.1 2.2-6 2-9.2-.5-2.1-1.7-2.6-2.9-2.6-6.8 0-6 2.6-9.1 7.5-9.1 2.4 0 3.9.7 5.3 2.5 1.1 1.4 2.5 2.5 3.1 2.5 1.4 0 1.4-.3 0-3.3-2-4.4-8.9-6-13.8-3.3zM60 275v11h7.5c6 0 7.5-.3 7.5-1.5s-1.3-1.5-6-1.5h-6v-9.5c0-7.8-.3-9.5-1.5-9.5s-1.5 1.9-1.5 11zM77 275v11h8c6.4 0 8-.3 8-1.5s-1.4-1.5-6.3-1.5h-6.3l.4-3.5.4-3.5h5.4c4.1 0 5.4-.4 5.4-1.5s-1.3-1.5-5.4-1.5c-5.2 0-5.4-.1-5.8-3-.3-1.7-.2-3.2 0-3.5.3-.3 3.2-.5 6.4-.5s5.8-.4 5.8-1-3.3-1-8-1h-8v11zM95 275c0 8.9.3 11 1.4 11 1.1 0 1.6-1.4 1.8-4.8.3-4.6.4-4.7 3.8-5 5.4-.4 7.1 1.5 7.9 9 .1.5.7.8 1.5.8 1.1 0 1.3-1 .9-4.3-.3-2.3-1-4.8-1.6-5.5-.8-1-.8-1.6 0-2 2.1-1.4 2.5-5.2.9-7.7-1.5-2.3-2.3-2.5-9.1-2.5H95v11zm13.4-7.4c2 2 2 2.9 0 4.9-1.1 1.1-3 1.5-5.8 1.3-3.4-.3-4.2-.7-4.4-2.6-.2-1.3-.1-3 .2-3.8.7-1.9 8-1.8 10 .2zM195 275c0 9.1.3 11 1.5 11 1.1 0 1.5-1.2 1.5-4.4v-4.4l5.5-.4c6.6-.6 7.9-1.6 7.9-6.2 0-5.5-1.7-6.6-9.5-6.6H195v11zm11.6-8.2c1.7 1.1 2.2 3.5 1.2 5.4-.6 1.3-2.1 1.8-5.3 1.8H198v-4c0-4 0-4 3.8-4 2 0 4.2.4 4.8.8zM213 275v11h8.1c6 0 8-.3 7.7-1.3-.3-.7-2.7-1.3-6.1-1.5l-5.7-.3V276h5.5c4.2 0 5.5-.3 5.5-1.5s-1.3-1.5-5.5-1.5H217v-7h6c3.3 0 6-.4 6-1s-3.3-1-8-1h-8v11zM254 275v11h15.6l1.5-3.3c1.2-2.8 1.9-3.2 5.7-3.5 4-.3 4.3-.1 5.7 3.2 1.5 3.6 5.4 5.3 4.1 1.8-8.8-23.9-10-24.7-15.3-10.7-1.9 4.9-3.9 9.4-4.3 9.9-.5.5-2.9.5-5.4.2l-4.6-.7v-9.5c0-7.7-.3-9.4-1.5-9.4s-1.5 1.9-1.5 11zm24.8-3.1c1.6 5.2 1.6 5.1-1.8 5.1-3.3 0-3.6-.9-1.9-5.9 1.4-4.1 2.3-3.9 3.7.8zM288.2 275c0 10.1.2 11 1.9 11 1.6 0 1.9-.8 1.9-5v-5h3.5c4.4 0 7.5 2.9 7.5 7 0 2.3.5 3 1.9 3 1.8 0 1.9-.3.6-5.8-.9-3.5-1-6.1-.4-6.7 1.5-1.5 1-6.7-.8-8.1-1.1-.8-4.6-1.3-8.9-1.4h-7.2v11zm14.2-6.8c1.9 3-.4 5.3-5.8 5.6l-4.6.3v-8.2l4.6.3c3.1.2 5.1.9 5.8 2z"/></svg>